<svg width="97" height="106" viewBox="0 0 97 106" fill="none" xmlns="http://www.w3.org/2000/svg">
<path d="M58.0963 0.0366908C58.0076 0.0288019 57.9295 0.0399778 57.845 0.0388821C57.8395 0.0388821 57.8338 0.0366908 57.8283 0.0366908C32.7665 -0.831743 6.42397 13.7331 8.70057 41.9145C8.70955 42.0287 8.73782 42.1297 8.75842 42.236C8.72555 42.5277 8.72555 42.8329 8.79633 43.1647C10.1705 49.5959 8.06135 55.2498 2.78238 59.1925C2.54046 59.3726 2.35507 59.5797 2.19313 59.7956C1.65953 60.1462 1.23835 60.6837 1.01133 61.3345C0.021058 64.1765 0.773349 67.0697 3.04447 69.047C3.41875 69.3718 3.85242 69.5933 4.30362 69.7123C5.76964 70.5224 7.30249 71.0609 8.89429 71.4371C8.56712 73.202 8.72796 74.9867 9.57799 76.667C7.99079 79.7605 9.04439 83.1733 12.178 85.036C12.3549 85.1416 12.5313 85.2207 12.7048 85.2819C13.2367 85.9152 13.2879 86.9322 13.092 87.9104C13.0313 88.2095 13.0237 88.5089 13.0465 88.8005C13.0327 89.0655 13.041 89.3348 13.092 89.6063C13.9182 93.9392 17.6194 96.3318 21.8544 96.4087C22.0825 96.4133 22.2929 96.3896 22.4914 96.3495C22.6873 96.3585 22.8926 96.3473 23.1046 96.3129C29.9059 95.21 37.6497 95.8264 40.2043 103.297C40.7151 104.789 42.0799 105.295 43.3029 105.098C43.7151 105.407 44.2577 105.583 44.9416 105.535C57.266 104.674 69.4819 102.884 81.7191 101.241C82.1521 101.183 82.527 101.043 82.8507 100.845C84.3343 100.382 85.5325 98.7219 84.5744 96.9324C76.3978 81.6876 92.9734 65.0561 96.1194 50.4111C96.1884 50.0944 96.1895 49.8012 96.1617 49.5218C99.4866 25.4684 82.843 2.26552 58.0963 0.0366908ZM90.9416 48.4492C90.9094 48.6718 90.905 48.8848 90.9173 49.0895C87.4999 64.7596 72.5134 79.9087 78.4465 96.3164C67.3024 97.8298 56.1657 99.3832 44.9401 100.169C44.8605 100.174 44.7911 100.196 44.7148 100.208C40.7027 91.2778 31.3673 89.6766 22.1307 91.0754C22.0385 91.0642 21.9528 91.044 21.8537 91.0421C20.8021 91.0219 20.2529 90.913 19.4323 90.4123C19.5042 90.4346 19.0107 90.0406 19.0151 90.0472C18.9445 89.976 18.9004 89.9337 18.8682 89.9058C18.8682 89.8846 18.84 89.8213 18.7363 89.6532C18.5801 89.4027 18.4648 89.0501 18.369 88.6517C18.8452 85.3625 17.9113 82.505 15.155 80.4019C14.9334 80.2339 14.6854 80.1394 14.429 80.077C14.3494 80.0101 14.2721 79.9457 14.1886 79.8613C14.2037 79.8679 14.1897 79.8346 14.1419 79.7577C14.1419 79.6898 14.1373 79.6676 14.1296 79.6742C14.1625 79.532 14.1941 79.3893 14.2443 79.2513C14.2454 79.2458 14.6455 78.625 14.7778 78.4378C15.1477 77.9158 15.2236 77.2828 15.1072 76.674C15.2172 76.0734 15.139 75.4458 14.7778 74.9227C13.7626 73.4516 13.9622 72.1997 14.7778 70.653C15.9458 68.4396 13.8419 66.4191 11.9782 66.626C11.9587 66.6236 11.9414 66.617 11.9225 66.6137C10.0318 66.3644 8.20423 65.8113 6.56575 64.8322C6.4483 64.7631 6.33303 64.7208 6.21799 64.6685C6.13603 64.5495 6.05999 64.4281 5.9914 64.3025C5.97979 64.2679 5.9708 64.2379 5.9548 64.1888C5.94144 64.1265 5.93201 64.0853 5.92303 64.0452C5.91843 63.9219 5.92193 63.8005 5.92741 63.6769C5.9364 63.6436 5.95371 63.5667 5.9765 63.4477C12.7949 58.1198 15.7236 50.7968 14.0646 42.2373C14.0679 42.13 14.079 42.0298 14.07 41.9156C12.0235 16.584 35.59 4.6359 57.827 5.40573C57.8971 5.40792 57.9593 5.39565 58.0273 5.39345C58.0518 5.39565 58.0718 5.40332 58.0961 5.40573C79.2076 7.3076 93.9495 27.8969 90.9416 48.4492Z" fill="currentColor"/>
<path d="M63.8244 13.0493H47.5872C46.3887 13.0493 45.6877 13.8093 45.4668 14.7073C44.9821 15.0662 44.6678 15.6459 44.7384 16.4678C45.9224 30.2087 47.3945 43.9163 49.663 57.5252C49.8811 58.8339 50.8987 59.2924 51.9035 59.1433C52.0682 59.1788 52.2418 59.1979 52.4298 59.1979H59.2666C60.7732 59.1979 61.5009 58.0016 61.4654 56.8343C61.5044 56.6831 61.5342 56.5216 61.5454 56.3491C62.4656 42.7996 64.6256 29.3891 66.1034 15.8979C66.1455 15.515 66.0999 15.1868 65.9954 14.9054C65.8352 13.9234 65.1107 13.0493 63.8244 13.0493ZM57.1211 54.6399H53.7907C51.8055 42.3589 50.4791 29.9977 49.3963 17.6071H61.3473C59.9466 29.9545 58.0572 42.2438 57.1211 54.6399Z" fill="currentColor"/>
<path d="M48.9421 65.5325C43.9524 72.9702 55.6691 80.2367 61.025 73.4553C62.8 71.2077 63.1215 69.04 62.544 67.2196C60.9706 62.2656 52.7272 59.8887 48.9421 65.5325ZM55.9474 71.7684C55.8129 71.7998 55.6827 71.8208 55.5558 71.832C52.459 72.1169 51.8292 66.8234 55.4243 66.6411C58.5159 66.4853 58.7015 71.1343 55.9474 71.7684Z" fill="currentColor"/>
</svg>
