<svg width="97" height="97" viewBox="0 0 97 97" fill="none" xmlns="http://www.w3.org/2000/svg">
<path d="M96.5833 42.1783C96.5833 38.156 94.768 34.3865 91.6747 31.8774C91.8093 31.2352 91.876 30.618 91.876 30.0107C91.876 25.0004 88.1711 20.8391 83.3577 20.1224C83.4682 19.5469 83.5207 18.9823 83.5207 18.4198C83.5207 13.0856 79.3168 8.72737 74.0504 8.45054C73.9639 8.43631 73.8764 8.42428 73.7856 8.42428C73.7418 8.42428 73.6991 8.42975 73.6543 8.43084C73.6105 8.42975 73.5678 8.42428 73.523 8.42428C73.0218 8.42428 72.5174 8.46914 71.9845 8.56215C71.0588 3.65464 66.7838 0 61.6585 0C55.8472 0 51.1191 4.72806 51.1191 10.5405V82.6682C51.1191 90.0246 57.1033 96.0077 64.4586 96.0077C69.3387 96.0077 73.7681 93.3673 76.1075 89.1733C76.6316 89.2871 77.1349 89.3571 77.6405 89.3899C80.8169 89.5923 83.9102 88.5518 86.3131 86.4432C88.716 84.3347 90.1538 81.4165 90.3617 78.2257C90.4481 76.8963 90.2993 75.5625 89.9207 74.245C94.0743 71.3005 96.5155 66.6381 96.5155 61.5293C96.5155 57.8254 95.1816 54.2692 92.7459 51.4363C95.197 48.9547 96.5833 45.6349 96.5833 42.1783ZM93.2351 61.5315C93.2351 65.3437 91.504 68.8408 88.5354 71.1813C86.3383 67.6842 82.4407 65.4509 78.2204 65.4509C77.3144 65.4509 76.5791 66.1862 76.5791 67.0922C76.5791 67.9982 77.3144 68.7335 78.2204 68.7335C81.8761 68.7335 85.2058 71.0237 86.5166 74.4321C86.9653 75.6226 87.1644 76.8274 87.0867 78.0146C86.9357 80.3299 85.8929 82.4472 84.1488 83.9769C82.4046 85.5077 80.1648 86.2682 77.8549 86.115C77.205 86.0723 76.5331 85.9322 75.7398 85.6751C74.9301 85.4103 74.0537 85.8108 73.7199 86.5942C72.1388 90.3189 68.5028 92.7262 64.4575 92.7262C58.9121 92.7262 54.4007 88.2147 54.4007 82.6693V10.5416C54.4007 6.54006 57.6559 3.28371 61.6574 3.28371C65.3755 3.28371 68.4349 6.08706 68.8332 9.74827C65.8231 11.4727 63.7867 14.7105 63.7867 18.4209C63.7867 19.328 64.522 20.0622 65.428 20.0622C66.334 20.0622 67.0694 19.328 67.0694 18.4209C67.0694 14.763 70.0117 11.7846 73.6521 11.7135C77.2925 11.7846 80.2348 14.763 80.2348 18.4198C80.2348 19.1004 80.1068 19.8051 79.842 20.5765C79.7796 20.7581 79.7501 20.9485 79.7534 21.14C79.7545 21.1849 79.7566 21.2265 79.761 21.2659C79.7545 21.2888 79.7501 21.3042 79.7501 21.3042C79.621 21.813 79.7435 22.3535 80.0794 22.7573C80.4154 23.161 80.9165 23.3799 81.4483 23.3459C81.5621 23.3383 81.6759 23.3241 81.8772 23.2956C85.5789 23.2956 88.5913 26.308 88.5913 30.0096C88.5913 30.6355 88.4785 31.2778 88.2389 32.0328C88.0168 32.7276 88.2805 33.4859 88.8856 33.893C91.5489 35.6864 93.1628 38.6298 93.2777 41.8172C93.2777 41.8216 93.2766 41.826 93.2766 41.8303C93.2766 47.3342 88.7991 51.8128 83.2953 51.8128C77.7915 51.8128 73.3129 47.3342 73.3129 41.8303C73.3129 40.9232 72.5776 40.189 71.6716 40.189C70.7656 40.189 70.0303 40.9232 70.0303 41.8303C70.0303 49.1451 75.9805 55.0954 83.2953 55.0954C85.7332 55.0954 88.0113 54.4224 89.9765 53.2702C92.0774 55.5571 93.2351 58.4819 93.2351 61.5315Z" fill="currentColor"/>
<path d="M35.5066 0.000976562C30.3813 0.000976562 26.1074 3.65562 25.1828 8.56312C24.6488 8.47012 24.1444 8.42525 23.6432 8.42525C23.5995 8.42525 23.5568 8.43073 23.5119 8.43182C23.4682 8.43073 23.4255 8.42525 23.3806 8.42525C23.2898 8.42525 23.2023 8.43729 23.1158 8.45152C17.8494 8.72835 13.6466 13.0866 13.6466 18.4208C13.6466 18.9832 13.7002 19.5478 13.8096 20.1234C8.99623 20.8401 5.29125 25.0014 5.29125 30.0117C5.29125 30.6179 5.358 31.235 5.49258 31.8784C2.39927 34.3874 0.583984 38.157 0.583984 42.1793C0.583984 45.6359 1.96925 48.9557 4.41917 51.4395C1.98238 54.2724 0.648542 57.8286 0.648542 61.5325C0.648542 66.6413 3.08971 71.3026 7.24331 74.2482C6.86362 75.5656 6.7159 76.8995 6.80344 78.23C7.01134 81.4196 8.44803 84.3379 10.8509 86.4464C13.2538 88.556 16.3383 89.5966 19.5236 89.3931C20.0214 89.3603 20.5291 89.288 21.0554 89.1753C23.3949 93.3705 27.8242 96.0108 32.7043 96.0108C40.0596 96.0108 46.0438 90.0266 46.0438 82.6714V10.5414C46.046 4.72903 41.3179 0.000976562 35.5066 0.000976562ZM42.7634 82.6692C42.7634 88.2146 38.252 92.726 32.7065 92.726C28.6613 92.726 25.0252 90.3188 23.4452 86.5941C23.1815 85.9737 22.5775 85.594 21.9341 85.594C21.7656 85.594 21.5938 85.6192 21.4253 85.675C20.6331 85.9321 19.9612 86.0722 19.3102 86.1149C16.9916 86.2669 14.7605 85.5065 13.0174 83.9768C11.2733 82.4471 10.2305 80.3298 10.0795 78.0145C9.99633 76.7452 10.2163 75.4584 10.7338 74.1902C10.7415 74.1716 10.7393 74.1508 10.7459 74.1322C12.2143 70.7883 15.3689 68.7126 19.0585 68.7126C19.9656 68.7126 20.6998 67.9773 20.6998 67.0713C20.6998 66.1653 19.9656 65.43 19.0585 65.43C14.7495 65.43 10.8509 67.6261 8.61106 71.1626C5.65562 68.822 3.93115 65.3337 3.93115 61.5314C3.93115 58.4818 5.09101 55.557 7.18969 53.2712C9.15489 54.4234 11.4341 55.0963 13.872 55.0963C21.1868 55.0963 27.137 49.1461 27.137 41.8313C27.137 40.9242 26.4028 40.19 25.4957 40.19C24.5886 40.19 23.8544 40.9242 23.8544 41.8313C23.8544 47.3352 19.3769 51.8137 13.872 51.8137C8.36706 51.8137 3.88958 47.3352 3.88958 41.8313C3.88958 41.8291 3.88848 41.8269 3.88848 41.8247C4.00118 38.6351 5.61513 35.6895 8.27952 33.894C8.88462 33.4869 9.14723 32.7297 8.9262 32.0349C8.68547 31.2788 8.57386 30.6365 8.57386 30.0106C8.57386 26.3166 11.5731 23.3086 15.3525 23.3086C15.3601 23.3086 15.3689 23.3086 15.3765 23.3086C15.4892 23.3239 15.6019 23.3382 15.7168 23.3458C16.2475 23.3786 16.7541 23.1587 17.089 22.7528C17.4249 22.3457 17.5452 21.803 17.4107 21.2931C17.4107 21.292 17.4074 21.2778 17.4019 21.2592C17.4052 21.2209 17.4085 21.1859 17.4096 21.1552C17.415 20.9583 17.3855 20.7624 17.3209 20.5764C17.0561 19.8028 16.9281 19.097 16.9281 18.4186C16.9281 14.7618 19.8693 11.7823 23.5108 11.7122C27.1524 11.7834 30.0936 14.7618 30.0936 18.4197C30.0936 19.3268 30.8278 20.061 31.7349 20.061C32.642 20.061 33.3762 19.3268 33.3762 18.4197C33.3762 14.7093 31.3399 11.4715 28.3297 9.74705C28.728 6.08585 31.7874 3.2825 35.5055 3.2825C39.507 3.2825 42.7623 6.53885 42.7623 10.5404L42.7634 82.6692Z" fill="currentColor"/>
</svg>
