<svg width="50" height="50" viewBox="0 0 50 50" fill="none" xmlns="http://www.w3.org/2000/svg">
<path d="M4.16699 25C4.16699 15.179 4.16699 10.2686 7.21797 7.2176C10.2689 4.16663 15.1794 4.16663 25.0003 4.16663C34.8212 4.16663 39.7318 4.16663 42.7826 7.2176C45.8337 10.2686 45.8337 15.179 45.8337 25C45.8337 34.8208 45.8337 39.7314 42.7826 42.7822C39.7318 45.8333 34.8212 45.8333 25.0003 45.8333C15.1794 45.8333 10.2689 45.8333 7.21797 42.7822C4.16699 39.7314 4.16699 34.8208 4.16699 25Z" stroke="currentColor" stroke-width="3.125"/>
<path d="M30.2077 19.7917L19.7911 30.2083M19.791 19.7916L30.2077 30.2083" stroke="currentColor" stroke-width="3.125" stroke-linecap="round"/>
</svg>
