<svg width="80" height="80" viewBox="0 0 80 80" fill="none" xmlns="http://www.w3.org/2000/svg">
<path fill-rule="evenodd" clip-rule="evenodd" d="M40 80C62.0914 80 80 62.0914 80 40C80 17.9086 62.0914 0 40 0C17.9086 0 0 17.9086 0 40C0 62.0914 17.9086 80 40 80ZM25.4221 36.464V25H20V54.703H25.4168L25.4223 44.2357C25.4168 42.4799 25.5822 41.1529 25.913 40.2542C26.2384 39.3557 26.755 38.6844 27.4673 38.2351C28.1693 37.7908 28.9751 37.5635 29.8736 37.5635C30.6584 37.5635 31.3089 37.7394 31.8307 38.0904C32.3521 38.4363 32.7137 38.9014 32.9203 39.4949C33.1266 40.0837 33.225 41.4731 33.225 43.6624V54.7029H38.6473V42.4437C38.6473 40.5693 38.5544 39.1856 38.3679 38.297C38.1825 37.4036 37.8364 36.5931 37.3251 35.8545C36.8188 35.1213 36.0653 34.5169 35.0582 34.0469C34.0563 33.5721 32.9357 33.3346 31.6862 33.3346C29.2591 33.3346 27.1675 34.383 25.4221 36.464ZM46.7753 36.464V25H41.3578V54.703H46.775V44.2357C46.775 42.4799 46.9398 41.1529 47.2652 40.2542C47.596 39.3557 48.1124 38.6844 48.8196 38.2351C49.522 37.7908 50.3274 37.5635 51.2261 37.5635C52.0108 37.5635 52.6667 37.7394 53.1832 38.0904C53.7051 38.4363 54.0662 38.9014 54.2729 39.4949C54.4798 40.0837 54.5827 41.4731 54.5827 43.6624V54.7029H60V42.4437C60 40.5693 59.9069 39.1856 59.7209 38.297C59.535 37.4036 59.1889 36.5931 58.6776 35.8545C58.1718 35.1213 57.4178 34.5169 56.4163 34.0469C55.4088 33.5721 54.2834 33.3346 53.0387 33.3346C50.612 33.3346 48.5202 34.383 46.7753 36.464Z" fill="#213457"/>
</svg>
