<svg width="84" height="24" viewBox="0 0 84 24" fill="none" xmlns="http://www.w3.org/2000/svg">
<path d="M0.0500001 1.5H3.8V8.425H11V1.5H14.75V19H11V11.725H3.8V19H0.0500001V1.5ZM17.5488 12.725C17.5488 8.8 20.1488 6.25 23.9488 6.25C27.5988 6.25 29.9488 8.6 29.9488 12.175C29.9488 12.55 29.9238 12.975 29.8488 13.475H21.0988C21.3488 15.175 22.4488 16.25 23.9988 16.25C25.2238 16.25 26.1738 15.55 26.3738 14.525H30.0238C29.6738 17.35 27.1988 19.25 23.9238 19.25C20.0738 19.25 17.5488 16.6 17.5488 12.725ZM23.9988 9C22.7488 9 21.7738 9.75 21.3238 10.975H26.3488C26.2238 9.8 25.2988 9 23.9988 9ZM31.5137 15.475C31.5137 13.175 33.3637 11.7 36.1137 11.7H39.3887V10.525C39.3887 9.475 38.6387 8.8 37.4387 8.8C36.0387 8.8 35.3887 9.7 35.3387 10.75H31.9887C32.1387 8.225 34.2387 6.25 37.5637 6.25C40.7387 6.25 43.0387 8.05 43.0387 10.9V19H39.7637L39.5137 17.25C39.0887 18.425 37.4887 19.25 35.6887 19.25C33.1637 19.25 31.5137 17.65 31.5137 15.475ZM35.2637 15.375C35.2637 16.175 35.8137 16.725 36.8387 16.725C38.3887 16.725 39.3637 15.475 39.3887 13.9H36.9387C35.8887 13.9 35.2637 14.525 35.2637 15.375ZM46.5041 19V0.75H50.1541V19H46.5041ZM53.7551 19V6.5H57.4051V19H53.7551ZM53.6551 2.675C53.6551 1.475 54.3801 0.75 55.5801 0.75C56.7801 0.75 57.5051 1.475 57.5051 2.675C57.5051 3.875 56.7801 4.6 55.5801 4.6C54.3801 4.6 53.6551 3.875 53.6551 2.675ZM62.2061 9.85H59.9561V6.5H62.2061V5.35C62.2061 1.95 64.5811 0.75 67.2811 0.75C67.9811 0.75 68.7561 0.824999 69.4811 0.924999V4.25C68.9561 4.15 68.4061 4.1 67.9311 4.1C66.7561 4.1 65.8561 4.425 65.8561 5.775V6.5H69.4811V9.85H65.8561V19H62.2061V9.85ZM73.0477 15.725C71.9477 13.225 70.8477 10.075 70.8477 7.05V6.5H74.5977V7.05C74.5977 9.55 75.3727 12.1 76.2227 14.15L77.0977 16.275H77.1977L78.0727 14.15C78.9227 12.1 79.6977 9.55 79.6977 7.05V6.5H83.2977V7.05C83.2977 10.075 82.1977 13.225 81.0977 15.725L77.4977 24H73.5227V23.9L75.9977 19H74.4727L73.0477 15.725Z" fill="currentColor"/>
</svg>
