<svg width="41" height="12" viewBox="0 0 41 12" fill="none" xmlns="http://www.w3.org/2000/svg">
<path d="M0.984 0.599999H2.784V3.924H6.24V0.599999H8.04V9H6.24V5.508H2.784V9H0.984V0.599999ZM9.38344 5.988C9.38344 4.104 10.6314 2.88 12.4554 2.88C14.2074 2.88 15.3354 4.008 15.3354 5.724C15.3354 5.904 15.3234 6.108 15.2874 6.348H11.0874C11.2074 7.164 11.7354 7.68 12.4794 7.68C13.0674 7.68 13.5234 7.344 13.6194 6.852H15.3714C15.2034 8.208 14.0154 9.12 12.4434 9.12C10.5954 9.12 9.38344 7.848 9.38344 5.988ZM12.4794 4.2C11.8794 4.2 11.4114 4.56 11.1954 5.148H13.6074C13.5474 4.584 13.1034 4.2 12.4794 4.2ZM16.0866 7.308C16.0866 6.204 16.9746 5.496 18.2946 5.496H19.8666V4.932C19.8666 4.428 19.5066 4.104 18.9306 4.104C18.2586 4.104 17.9466 4.536 17.9226 5.04H16.3146C16.3866 3.828 17.3946 2.88 18.9906 2.88C20.5146 2.88 21.6186 3.744 21.6186 5.112V9H20.0466L19.9266 8.16C19.7226 8.724 18.9546 9.12 18.0906 9.12C16.8786 9.12 16.0866 8.352 16.0866 7.308ZM17.8866 7.26C17.8866 7.644 18.1506 7.908 18.6426 7.908C19.3866 7.908 19.8546 7.308 19.8666 6.552H18.6906C18.1866 6.552 17.8866 6.852 17.8866 7.26ZM23.282 9V0.24H25.034V9H23.282ZM26.7624 9V3H28.5144V9H26.7624ZM26.7144 1.164C26.7144 0.588 27.0624 0.24 27.6384 0.24C28.2144 0.24 28.5624 0.588 28.5624 1.164C28.5624 1.74 28.2144 2.088 27.6384 2.088C27.0624 2.088 26.7144 1.74 26.7144 1.164ZM30.8189 4.608H29.7389V3H30.8189V2.448C30.8189 0.816 31.9589 0.24 33.2549 0.24C33.5909 0.24 33.9629 0.275999 34.3109 0.323999V1.92C34.0589 1.872 33.7949 1.848 33.5669 1.848C33.0029 1.848 32.5709 2.004 32.5709 2.652V3H34.3109V4.608H32.5709V9H30.8189V4.608ZM36.0229 7.428C35.4949 6.228 34.9669 4.716 34.9669 3.264V3H36.7669V3.264C36.7669 4.464 37.1389 5.688 37.5469 6.672L37.9669 7.692H38.0149L38.4349 6.672C38.8429 5.688 39.2149 4.464 39.2149 3.264V3H40.9429V3.264C40.9429 4.716 40.4149 6.228 39.8869 7.428L38.1589 11.4H36.2509V11.352L37.4389 9H36.7069L36.0229 7.428Z" fill="currentColor" stroke="currentColor" stroke-opacity="0"/>
</svg>
