<svg width="140" height="140" viewBox="0 0 140 140" fill="none" xmlns="http://www.w3.org/2000/svg">
<path d="M83.3593 136.035H91.5038C98.8281 136.035 105.156 135.566 109.317 134.57C117.403 132.578 122.441 126.953 122.441 119.746C122.441 118.281 122.207 116.875 121.797 115.527C125.84 112.598 128.125 108.086 128.125 103.223C128.125 100.82 127.657 98.4765 126.777 96.543C129.472 93.789 131.114 89.746 131.114 85.4687C131.114 82.7147 130.411 79.7852 129.179 77.6757C130.879 75.2735 131.817 72.0507 131.817 68.4765C131.817 59.746 125.02 52.832 116.289 52.832H94.1408C92.7343 52.832 91.7971 52.1875 91.7971 51.0157C91.7971 44.629 101.758 29.8047 101.758 17.9102C101.758 9.82422 96.1328 3.96472 88.3398 3.96472C82.5978 3.96472 78.7306 6.95322 74.9221 14.2187C67.7736 27.9297 59.3361 40.0587 45.3908 57.0507H34.2578C19.7853 57.0507 8.18359 73.3985 8.18359 93.379C8.18359 113.125 20.9571 129.531 36.4843 129.531H55.8203C63.5548 133.574 72.9298 136.035 83.3593 136.035ZM91.5626 127.187L83.4181 127.07C58.8673 126.894 42.2266 113.008 42.2266 93.086C42.2266 80.4297 45.0391 72.3437 53.0078 61.6797C61.8556 49.9025 74.0431 35.7812 82.8321 18.2617C85.1758 13.5742 86.4063 12.8125 88.3398 12.8125C91.2111 12.8125 92.9103 14.629 92.9103 17.9102C92.9103 27.4025 82.9493 41.8165 82.9493 51.0157C82.9493 57.6367 88.4571 61.6797 95.4298 61.6797H116.289C120.157 61.6797 122.969 64.6092 122.969 68.4765C122.969 71.289 122.09 73.1055 119.805 75.332C119.219 75.918 118.925 76.504 118.925 77.1485C118.925 77.6172 119.102 78.1445 119.512 78.6132C121.445 81.4257 122.266 83.1837 122.266 85.4687C122.266 88.2812 120.919 90.625 118.281 92.6757C117.168 93.496 116.582 94.4337 116.582 95.4297C116.582 95.7812 116.641 96.1915 116.875 96.6015C118.574 99.8242 119.277 101.113 119.277 103.223C119.277 106.387 117.285 108.789 113.067 110.957C112.188 111.426 111.66 112.129 111.66 113.008C111.66 113.359 111.778 113.711 111.953 114.121C113.418 117.695 113.594 118.281 113.594 119.746C113.594 122.617 111.484 124.902 107.207 125.957C103.75 126.836 98.2423 127.246 91.5626 127.187ZM36.4843 120.683C26.1133 120.683 17.0313 108.203 17.0313 93.379C17.0313 78.2617 25.1758 65.8985 34.2578 65.8985H39.6486C35.2538 74.1015 33.3788 82.7147 33.3788 92.9102C33.3788 103.926 37.3633 113.418 44.4531 120.683H36.4843Z" fill="currentColor"/>
</svg>
