<svg width="44" height="44" viewBox="0 0 44 44" fill="none" xmlns="http://www.w3.org/2000/svg">
<g clip-path="url(#clip0_458_2476)">
<path d="M23.375 5.84373C27.0927 9.4394 28.8106 14.5672 29.0039 19.6367C28.9044 24.9071 27.0751 29.5541 23.6193 33.529C22.9449 34.1049 22.5396 34.304 21.6562 34.375C18.1564 32.154 16.3805 27.9387 15.4791 24.028C14.3889 18.6543 15.4075 13.6163 18.2187 8.93748C20.8492 5.12877 20.8492 5.12877 23.375 5.84373Z" fill="currentColor"/>
<path d="M35.75 9.96874C37.3021 13.7372 36.8798 19.0145 35.4935 22.7627C33.9637 26.1559 31.696 29.5486 28.5312 31.625C28.3044 31.625 28.0775 31.625 27.8438 31.625C28.4439 29.7742 29.147 27.9745 29.8646 26.1666C31.2911 22.1954 31.0217 17.1171 29.7881 13.1363C29.5625 12.375 29.5625 12.375 29.5625 11.3437C30.2041 11.0437 30.8494 10.7516 31.4961 10.4629C31.855 10.2994 32.2139 10.1359 32.5837 9.9674C33.8059 9.58827 34.5223 9.66091 35.75 9.96874Z" fill="currentColor"/>
<path d="M11.344 9.96881C12.3988 10.3807 13.4202 10.8477 14.4378 11.3438C13.7503 14.7813 13.7503 14.7813 13.5623 15.5521C12.6689 20.9894 13.5559 26.1079 16.1565 30.9376C16.1565 31.1644 16.1565 31.3913 16.1565 31.6251C12.4165 29.9002 10.0966 26.4611 8.63698 22.7305C7.74195 20.2707 7.5001 18.2901 7.49831 15.6837C7.492 15.2024 7.492 15.2024 7.48556 14.7115C7.48194 13.0083 7.51868 11.5449 8.25026 9.96881C9.29946 9.44421 10.2467 9.69345 11.344 9.96881Z" fill="currentColor"/>
<path d="M38.5 19.2501C40.559 19.1417 41.8122 19.3593 43.6562 20.2814C43.496 24.4489 41.1327 27.8208 38.1562 30.5939C35.2068 33.025 31.6594 34.5281 27.8438 34.7189C28.8889 33.604 29.9631 32.7029 31.1953 31.797C34.6358 29.064 36.4685 25.4202 37.8125 21.3126C37.9406 20.9293 38.0686 20.546 38.2006 20.1511C38.2994 19.8538 38.3982 19.5564 38.5 19.2501Z" fill="currentColor"/>
<path d="M5.50007 19.2501C5.59622 19.5745 5.69238 19.8988 5.79145 20.233C7.58763 26.0717 10.3628 30.2021 15.3386 33.7615C15.6084 33.964 15.8783 34.1665 16.1563 34.3751C16.1563 34.4885 16.1563 34.602 16.1563 34.7189C11.4918 34.4856 7.20298 32.2375 3.9975 28.8684C2.10785 26.5709 0.0545564 23.3668 0.343816 20.2814C2.18783 19.3593 3.44103 19.1417 5.50007 19.2501Z" fill="currentColor"/>
<path d="M2.0625 29.9062C2.46354 30.207 2.86458 30.5078 3.26562 30.8086C3.51731 30.9965 3.769 31.1844 4.02832 31.3779C4.52597 31.7529 5.02053 32.132 5.51074 32.5166C9.21805 35.4001 13.2751 36.4157 17.875 37.125C16.3145 38.6855 13.8874 38.5945 11.7949 38.6289C7.31382 38.6138 3.78852 37.1538 0.433716 34.191C0 33.6875 0 33.6875 -0.193359 32.6992C0.0858276 31.1482 0.798674 30.8015 2.0625 29.9062Z" fill="currentColor"/>
<path d="M41.5938 29.9062C43.8669 31.2168 43.8669 31.2168 44.3223 32.6133C43.7309 34.5846 42.109 35.5789 40.3987 36.604C36.4262 38.6948 31.8499 39.2918 27.5 37.9844C27.0387 37.8205 26.5789 37.6521 26.125 37.4688C26.125 37.3553 26.125 37.2419 26.125 37.125C26.3117 37.0941 26.4983 37.0633 26.6906 37.0315C32.7212 36.0068 37.1669 34.3331 41.5938 29.9062Z" fill="currentColor"/>
</g>
<defs>
<clipPath id="clip0_458_2476">
<rect width="44" height="44" fill="white"/>
</clipPath>
</defs>
</svg>
