<svg width="41" height="41" viewBox="0 0 41 41" fill="none" xmlns="http://www.w3.org/2000/svg">
<path d="M37.3333 20.0667C37.3333 29.6027 29.6027 37.3333 20.0667 37.3333V40.1333C31.1493 40.1333 40.1333 31.1493 40.1333 20.0667H37.3333ZM20.0667 37.3333C10.5306 37.3333 2.8 29.6027 2.8 20.0667H0C0 31.1493 8.98415 40.1333 20.0667 40.1333V37.3333ZM2.8 20.0667C2.8 10.5306 10.5306 2.8 20.0667 2.8V0C8.98415 0 0 8.98415 0 20.0667H2.8ZM26.6 24.2667C20.6722 24.2667 15.8667 19.4611 15.8667 13.5333H13.0667C13.0667 21.0077 19.1257 27.0667 26.6 27.0667V24.2667ZM35.7939 19.0755C33.9121 22.1896 30.498 24.2667 26.6 24.2667V27.0667C31.5185 27.0667 35.8226 24.4419 38.1905 20.5234L35.7939 19.0755ZM15.8667 13.5333C15.8667 9.6354 17.9437 6.22123 21.0579 4.33938L19.6099 1.94292C15.6914 4.31069 13.0667 8.61483 13.0667 13.5333H15.8667ZM20.0667 2.8C19.9015 2.8 19.7077 2.72548 19.5671 2.57914C19.4481 2.45517 19.4204 2.33789 19.4139 2.29046C19.4061 2.23229 19.41 2.06373 19.6099 1.94292L21.0579 4.33938C21.9972 3.77188 22.2992 2.73276 22.1887 1.9157C22.0741 1.06635 21.4043 0 20.0667 0V2.8ZM38.1905 20.5234C38.0695 20.7234 37.901 20.7273 37.8429 20.7194C37.7955 20.7129 37.6781 20.6853 37.5542 20.5662C37.4078 20.4256 37.3333 20.2319 37.3333 20.0667H40.1333C40.1333 18.729 39.0669 18.0593 38.2176 17.9446C37.4005 17.8341 36.3614 18.1362 35.7939 19.0755L38.1905 20.5234Z" fill="currentColor"/>
</svg>
