<svg width="96" height="97" viewBox="0 0 96 97" fill="none" xmlns="http://www.w3.org/2000/svg">
<path d="M91.5523 55.3618C88.2867 54.4013 84.637 54.4013 81.1794 55.5539L69.2697 59.3957C69.0776 58.6273 68.5014 57.6669 67.5409 56.7064C65.62 54.5934 62.5465 53.2488 59.4731 53.2488H49.2923C48.716 53.2488 47.9476 53.0567 47.5634 52.6725C40.0719 46.3335 31.4278 49.2149 28.9306 50.3674C28.3543 50.5595 27.7781 50.9437 27.3939 51.3279L15.6763 61.1245C14.7159 60.1641 13.3712 59.3957 12.0266 59.2036C10.2978 59.0115 8.56895 59.3957 7.03222 60.5482L2.61413 63.8138C-0.267233 66.1189 -0.843507 70.1528 1.26949 73.2262L16.6368 93.5879C17.7893 94.9325 19.3261 95.893 21.0549 96.0851C21.4391 96.0851 21.6311 96.0851 22.0153 96.0851C23.36 96.0851 24.8967 95.7009 26.0492 94.7404L30.4673 91.4749C32.7724 89.7461 33.7329 86.4805 32.5803 83.9833L34.8854 82.2545C35.4617 81.8703 36.038 81.6783 36.6142 81.6783L58.3205 81.2941C62.1624 81.2941 66.0042 80.1415 69.4618 78.2206L91.7444 65.3505C92.8969 64.7742 96.3545 62.4691 95.9704 59.3957C95.7783 57.4748 94.2415 56.1301 91.5523 55.3618ZM27.9701 88.4014L23.5521 91.667C22.9758 92.2433 22.2074 92.4353 21.6311 92.4353C20.8628 92.2433 20.2865 91.8591 19.7102 91.2828L4.34295 70.9211C3.3825 69.7686 3.57459 67.8477 4.91922 66.8872L9.33732 63.6217C9.91359 63.2375 10.4899 63.0454 11.0661 63.0454C11.2582 63.0454 11.2582 63.0454 11.4503 63.0454C12.2187 63.2375 12.795 63.4296 13.1791 64.0059L23.9362 78.2206L28.7385 84.3675C29.5069 85.7122 29.3148 87.6331 27.9701 88.4014ZM89.8235 61.8929L67.5409 74.763C64.6595 76.2997 61.5861 77.2602 58.3205 77.2602L36.4222 77.6443C34.8854 77.6443 33.5408 78.2206 32.3882 78.989L30.4673 80.5257L26.0492 74.763L17.9814 64.0059L29.699 54.2092C29.8911 54.0171 30.0831 54.0171 30.2752 53.825C32.1961 53.0567 39.1114 50.5595 44.8742 55.5539C46.0267 56.5143 47.5634 57.0906 49.1002 57.0906H59.281C61.394 57.0906 63.3149 57.859 64.6595 59.2036C65.0437 59.7799 65.62 60.5482 65.62 61.1245C65.62 61.5087 65.0437 62.6612 61.9703 64.0059H47.3713C46.2188 64.0059 45.4504 64.7742 45.4504 65.9268C45.4504 67.0793 46.2188 67.8477 47.3713 67.8477H62.9307L63.3149 67.6556C66.1963 66.311 67.9251 64.9663 68.8855 63.4296L82.524 59.2036C85.2133 58.2431 88.0946 58.2431 90.5918 59.0115C91.7444 59.3957 92.1285 59.5878 92.3206 59.7799C91.9365 60.3561 90.7839 61.3166 89.8235 61.8929Z" fill="currentColor"/>
<path d="M11.6417 67.6558L8.1841 70.1529C7.41573 70.7292 7.22364 72.0739 7.79991 72.8422C8.1841 73.4185 8.76037 73.6106 9.33664 73.6106C9.72083 73.6106 10.105 73.4185 10.4892 73.2264L13.9468 70.7292C14.7152 70.1529 14.9073 68.8083 14.331 68.0399C13.5626 67.0795 12.4101 66.8874 11.6417 67.6558Z" fill="currentColor"/>
<path d="M46.4116 21.3618C49.6772 24.0511 54.0953 24.6274 57.745 24.6274C59.858 24.6274 61.971 24.4353 63.3156 24.0511V35.9607C56.2083 36.9212 50.6376 42.4918 50.6376 49.0229V50.9438H80.7959V49.0229C80.7959 42.1077 74.649 36.537 66.9654 35.9607V22.1302C69.6546 23.2827 73.8807 24.6274 78.1067 24.6274C80.0276 24.6274 81.9485 24.4353 83.6773 23.6669C91.7451 20.4014 94.4344 9.06801 94.6265 8.49173C94.8186 7.72337 94.4344 6.955 93.8581 6.37873C93.4739 6.18664 83.4852 0.0397272 75.4174 3.30527C71.1914 5.03409 67.9258 9.06801 66.0049 12.5256C65.2366 9.45219 63.5077 5.99455 60.4343 3.68946C53.3269 -2.07327 41.6094 1.19227 41.0331 1.38436C40.2647 1.57646 39.6885 2.34482 39.6885 3.11318C39.6885 3.68946 39.1122 15.7912 46.4116 21.3618ZM76.762 47.2941H54.6715C55.8241 43.0681 60.2422 39.8026 65.6207 39.8026C71.1914 39.8026 75.8016 43.0681 76.762 47.2941ZM76.9541 7.14709C81.7564 5.22618 88.0954 7.91546 90.5926 9.2601C89.6321 12.1415 87.1349 18.2884 82.3327 20.4014C78.4908 21.9381 73.6886 20.7856 70.2309 19.4409L84.0615 14.0624C84.8298 13.6782 85.214 13.1019 85.214 12.3336C85.214 12.1415 85.214 11.9494 85.0219 11.5652C84.6377 10.6047 83.4852 10.0285 82.5247 10.4126L68.6942 15.7912C70.423 12.5256 73.1123 8.68382 76.9541 7.14709ZM58.1292 6.57082C61.5868 9.2601 62.7394 14.2545 63.1236 17.7121L51.0218 8.10755C50.2535 7.53128 48.9088 7.53128 48.3325 8.49173C48.1405 8.87592 47.9484 9.2601 47.9484 9.64428C47.9484 10.2206 48.1405 10.7968 48.7167 11.181L60.8185 20.7856C57.3608 21.1697 52.3665 21.1697 48.9088 18.4805C44.4907 15.0228 43.9144 7.91546 43.7224 4.842C46.6037 4.07364 53.7111 3.11318 58.1292 6.57082Z" fill="currentColor"/>
</svg>
