<svg width="44" height="44" viewBox="0 0 44 44" fill="none" xmlns="http://www.w3.org/2000/svg">
<path d="M22 2V9.73333M22 34V42M10 22H6H2M13.1111 13.1111L7.55555 7.55555M30.8889 13.1111L33.6667 10.3333L36.4444 7.55555M13.7333 30.2669L7.55555 36.4447M30.2667 30.2669L36.4444 36.4447M42 22H38.1333H34.2667M30.8889 22C30.8889 26.9091 26.9091 30.8889 22 30.8889C17.0908 30.8889 13.1111 26.9091 13.1111 22C13.1111 17.0908 17.0908 13.1111 22 13.1111C26.9091 13.1111 30.8889 17.0908 30.8889 22Z" stroke="currentColor" stroke-width="2.4" stroke-linecap="round" stroke-linejoin="round"/>
</svg>
